<svg width="18" height="16" viewBox="0 0 18 16" fill="none" xmlns="http://www.w3.org/2000/svg"><path d="M8.99998 15.5c-.5375-.4767-1.145-.9725-1.7875-1.5h-.00833c-2.2625-1.85-4.82667-3.9434-5.95917-6.45171C.87291 6.74973.675732 5.8809.666635 4.99996.664151 3.7912 1.14895 2.63245 2.01149 1.7856 2.87402.938751 4.04147.475289 5.24998.49996c.98386.001554 1.94653.285901 2.77333.81917.36331.2358.69202.52104.97667.8475.28624-.32518.61504-.61025.9775-.8475C10.8039.785756 11.7664.501392 12.75.49996c1.2085-.024671 2.3759.438791 3.2385 1.28564.8625.84685 1.3473 2.0056 1.3448 3.21436-.0085.88235-.2057 1.75266-.5783 2.5525C15.6225 10.0608 13.0591 12.1533 10.7966 14l-.0083.0066c-.6433.5242-1.24999 1.02-1.78749 1.5L8.99998 15.5Zm-3.75-13.33337c-.77624-.00972-1.52494.28737-2.08333.82666-.53802.52847-.83871 1.25254-.83341 2.00667.00951.64208.15493 1.27488.42674 1.85667.53459 1.08225 1.25592 2.06171 2.13083 2.89333.82584.83334 1.77584 1.64004 2.5975 2.31834.2275.1875.45917.3767.69084.5658l.14583.1192c.2225.1817.4525.37.675.555l.01083-.01.005-.0042h.005l.0075-.0058h.00833l.01501-.0125.03416-.0275.00584-.005.00916-.0067h.005l.0075-.0066.55334-.4542.145-.1192c.23415-.1908.46585-.38.69335-.5675.8216-.6783 1.7725-1.4841 2.5983-2.32164.875-.8312 1.5964-1.81041 2.1308-2.8925.2768-.58683.4243-1.22625.4326-1.875.0034-.7518-.2971-1.47309-.8334-2-.5573-.54173-1.3061-.84126-2.0833-.83333-.9484-.00806-1.8551.38947-2.4917 1.0925l-1.25832 1.45-1.25833-1.45c-.63662-.70303-1.54327-1.10056-2.49167-1.0925Z" fill="#303030"/></svg>