<svg width="16" height="16" viewBox="0 0 16 16" fill="none" xmlns="http://www.w3.org/2000/svg"><path d="m15.5645 11.7424-2.2328-2.23286c-.7975-.79745-2.1531-.47844-2.4721.55826-.2393.7177-1.0367 1.1164-1.7544.9569-1.59489-.3987-3.748-2.4721-4.14672-4.14673-.23923-.71773.23923-1.51518.95694-1.75438 1.03668-.31898 1.35565-1.67464.55821-2.47208L4.24078.418659c-.63796-.558212-1.59489-.558212-2.1531 0L.57253 1.93381C-.942617 3.5287.732019 7.75516 4.48001 11.5032c3.748 3.7479 7.97449 5.5024 9.56939 3.9074l1.5151-1.5151c.5583-.638.5583-1.5949 0-2.1531Z" fill="#303030"/></svg>