<svg width="16" height="18" viewBox="0 0 16 18" fill="none" xmlns="http://www.w3.org/2000/svg"><path fill-rule="evenodd" clip-rule="evenodd" d="M9.66667 3.58329c0-1.61083 1.30583-2.916664 2.91663-2.916664 1.6109 0 2.9167 1.305834 2.9167 2.916664 0 1.61082-1.3058 2.91667-2.9167 2.91667-.8143 0-1.5506-.3337-2.0797-.8718L6.22756 8.21884c.06893.24861.10577.51056.10577.78112 0 .24305-.02973.47916-.08575.70489l4.35332 2.57245c.5203-.4824 1.2169-.7773 1.9824-.7773 1.6109 0 2.9167 1.3058 2.9167 2.9166 0 1.6108-1.3058 2.9167-2.9167 2.9167-1.6108 0-2.91663-1.3059-2.91663-2.9167 0-.243.02972-.4791.08574-.7048l-4.35333-2.5724c-.52033.4823-1.21694.7772-1.98241.7772C1.80585 11.9166.5 10.6108.5 8.99996c0-1.61082 1.30585-2.91667 2.91667-2.91667.73706 0 1.41028.27341 1.92375.72434l4.38183-2.65479c-.03647-.1842-.05558-.37464-.05558-.56955Zm2.91663-1.25c-.6903 0-1.25.55965-1.25 1.25s.5597 1.25 1.25 1.25c.6904 0 1.25-.55965 1.25-1.25s-.5596-1.25-1.25-1.25ZM3.41667 7.74996c-.69035 0-1.25.55965-1.25 1.25s.55965 1.25004 1.25 1.25004c.69034 0 1.25-.55969 1.25-1.25004s-.55966-1.25-1.25-1.25Zm9.16663 5.41664c-.6903 0-1.25.5597-1.25 1.25 0 .6904.5597 1.25 1.25 1.25.6904 0 1.25-.5596 1.25-1.25 0-.6903-.5596-1.25-1.25-1.25Z" fill="#C9C9C9"/></svg>