<svg width="20" height="20" viewBox="0 0 20 20" xmlns="http://www.w3.org/2000/svg"><path fill-rule="evenodd" clip-rule="evenodd" d="M11.0044 1.5c0-.552285-.4477-1-1-1-.55229 0-1.00001.447715-1.00001 1v2.04989c-.95963.0962-1.87591.32742-2.73034.65783L5.4446 3.05037c-.32171-.44891-.94643-.55201-1.39533-.2303-.44891.32172-.55201.94644-.23029 1.39534l.63894.89154c-.5309.32483-1.02392.68576-1.47253 1.07013C1.24791 7.6658 0 9.66836 0 11.5c0 1.8316 1.24791 3.8342 2.98539 5.3229C4.76222 18.3453 7.23586 19.5 10 19.5c2.7639 0 5.2376-1.1538 7.0145-2.6759C18.7522 15.3355 20 13.333 20 11.5c0-1.83298-1.2478-3.83556-2.9855-5.32409-.3297-.28245-.6835-.55223-1.0586-.8043l.6694-.93402c.3217-.4489.2187-1.07361-.2302-1.39534-.4489-.32172-1.0737-.21863-1.3954.23027l-.8079 1.12723c-.9816-.43182-2.0542-.73447-3.1874-.849V1.5ZM10 7.5c-2.20914 0-4 1.79086-4 4 0 2.2091 1.79086 4 4 4 2.2091 0 4-1.7909 4-4 0-2.20914-1.7909-4-4-4Z" /></svg>
